<svg width="966" height="135" viewBox="0 0 966 135" fill="none" xmlns="http://www.w3.org/2000/svg">
<mask id="mask0_1532_9367" style="mask-type:alpha" maskUnits="userSpaceOnUse" x="0" y="0" width="966" height="135">
<rect x="0.5" y="0.5" width="965" height="134" rx="9.5" fill="#101B37" stroke="#E1E1E1"/>
</mask>
<g mask="url(#mask0_1532_9367)">
<path opacity="0.2" d="M760.076 -1L897.576 136.5H849.501L712.001 -1H760.076Z" fill="url(#paint0_linear_1532_9367)"/>
<path d="M849.5 32.6328L987 170.133H938.924L801.424 32.6328H849.5Z" fill="url(#paint1_linear_1532_9367)"/>
<path opacity="0.2" d="M542.076 -97L679.576 40.5H631.501L494.001 -97H542.076Z" fill="url(#paint2_linear_1532_9367)"/>
<path d="M631.5 -63.3672L769 74.1328H720.924L583.424 -63.3672H631.5Z" fill="url(#paint3_linear_1532_9367)"/>
<g filter="url(#filter0_f_1532_9367)">
<path d="M396.419 54.1446L350.999 80.4321L327.548 -0.818936L396.419 54.1446L478.222 6.80113C463.883 39.3048 450.879 96.5737 513.573 65.6207C591.941 26.9292 602.882 -33.0339 624.402 16.6661C641.62 56.4265 623.739 103.401 612.645 121.918L552.687 60.112L517.775 150.992L396.419 54.1446Z" fill="url(#paint4_linear_1532_9367)" fill-opacity="0.3"/>
</g>
</g>
<defs>
<filter id="filter0_f_1532_9367" x="275.547" y="-54.1855" width="408.006" height="257.178" filterUnits="userSpaceOnUse" color-interpolation-filters="sRGB">
<feFlood flood-opacity="0" result="BackgroundImageFix"/>
<feBlend mode="normal" in="SourceGraphic" in2="BackgroundImageFix" result="shape"/>
<feGaussianBlur stdDeviation="26" result="effect1_foregroundBlur_1532_9367"/>
</filter>
<linearGradient id="paint0_linear_1532_9367" x1="804.788" y1="-1" x2="804.788" y2="136.5" gradientUnits="userSpaceOnUse">
<stop stop-color="white"/>
<stop offset="1" stop-color="white" stop-opacity="0"/>
</linearGradient>
<linearGradient id="paint1_linear_1532_9367" x1="894.212" y1="32.6328" x2="894.212" y2="170.133" gradientUnits="userSpaceOnUse">
<stop stop-color="white"/>
<stop offset="1" stop-color="white" stop-opacity="0"/>
</linearGradient>
<linearGradient id="paint2_linear_1532_9367" x1="586.788" y1="-97" x2="586.788" y2="40.5" gradientUnits="userSpaceOnUse">
<stop stop-color="white"/>
<stop offset="1" stop-color="white" stop-opacity="0"/>
</linearGradient>
<linearGradient id="paint3_linear_1532_9367" x1="676.212" y1="-63.3672" x2="676.212" y2="74.1328" gradientUnits="userSpaceOnUse">
<stop stop-color="white"/>
<stop offset="1" stop-color="white" stop-opacity="0"/>
</linearGradient>
<linearGradient id="paint4_linear_1532_9367" x1="659.489" y1="20.4336" x2="304.302" y2="0.100055" gradientUnits="userSpaceOnUse">
<stop stop-color="#9089FC"/>
<stop offset="0.484375" stop-color="#0FF7A3"/>
<stop offset="1" stop-color="#4CD0F4"/>
</linearGradient>
</defs>
</svg>
