<svg width="65" height="65" viewBox="0 0 65 65" fill="none" xmlns="http://www.w3.org/2000/svg">
<g clip-path="url(#clip0_1319_12056)">
<path d="M59.4622 45.6754C57.7632 43.4041 55.4275 41.7795 52.7073 40.9767L41.1103 37.3607C40.9036 37.2965 40.6878 37.2663 40.4714 37.2714C40.0449 36.8199 39.7562 36.1383 39.7562 35.5261V32.9087C40.2679 32.5678 40.758 32.1953 41.2235 31.7936C43.5061 29.8282 44.9385 26.9856 45.235 23.8873C46.9016 23.8401 48.2429 22.4696 48.2429 20.7918V18.4173C48.2432 17.9674 48.1452 17.5228 47.9558 17.1147C47.7665 16.7065 47.4903 16.3446 47.1465 16.0543V12.9824C47.1465 12.8572 47.1219 12.7331 47.0739 12.6174C47.026 12.5017 46.9558 12.3965 46.8672 12.308C46.7786 12.2194 46.6735 12.1491 46.5577 12.1012C46.442 12.0533 46.318 12.0286 46.1927 12.0286C45.9398 12.0286 45.6972 12.1291 45.5183 12.308C45.3394 12.4869 45.2389 12.7295 45.2389 12.9824L45.2388 15.0311C45.1589 15.004 45.0787 14.9789 44.9988 14.9524C44.8778 14.9121 44.7566 14.8724 44.6353 14.8332C44.4772 14.7824 44.3188 14.7326 44.1601 14.6837C44.0409 14.6469 43.9216 14.6099 43.8022 14.5742C43.6388 14.5256 43.4751 14.478 43.3111 14.4314C43.1969 14.3987 43.0826 14.3653 42.9682 14.3337C42.7918 14.285 42.6152 14.2385 42.4385 14.1922C42.3366 14.1655 42.235 14.1377 42.1331 14.1118C41.9083 14.055 41.6829 14.0001 41.4571 13.9472C41.4037 13.9346 41.3503 13.9208 41.2969 13.9084C41.0185 13.8439 40.7397 13.7828 40.4608 13.7244C40.3762 13.7067 40.2916 13.6908 40.2069 13.6737C40.0119 13.6338 39.8166 13.5953 39.621 13.5583C39.5128 13.5381 39.4047 13.5197 39.2965 13.5004C39.1243 13.4694 38.9519 13.4395 38.7793 13.4107C38.6629 13.3915 38.5465 13.3738 38.4299 13.3557C38.2652 13.3298 38.1002 13.305 37.9352 13.2813C37.8156 13.2643 37.696 13.2483 37.5763 13.2323C37.4138 13.2107 37.2514 13.1898 37.0889 13.1702C36.6863 13.1217 36.283 13.0796 35.8792 13.0436C35.7145 13.0293 35.5497 13.0159 35.3848 13.0035C35.2675 12.9946 35.1503 12.9855 35.033 12.9777C34.8616 12.9663 34.6903 12.957 34.5189 12.948C34.4085 12.9422 34.2982 12.9356 34.1879 12.9306C33.9991 12.9227 33.8102 12.9161 33.6213 12.911C33.5286 12.9082 33.436 12.9042 33.3433 12.9022C33.062 12.8958 32.7807 12.8926 32.4993 12.8924C32.2181 12.8924 31.9368 12.896 31.6556 12.9022C31.5626 12.9042 31.4697 12.9083 31.3768 12.911C31.1883 12.9166 30.9996 12.9223 30.8111 12.9306C30.7004 12.9356 30.5895 12.9422 30.4788 12.948C30.3078 12.9567 30.1368 12.9666 29.9659 12.9777C29.8485 12.9856 29.7311 12.9948 29.6137 13.0036C29.4491 13.0161 29.2845 13.029 29.1199 13.0436C28.9995 13.0543 28.879 13.066 28.7585 13.0778C28.475 13.1056 28.1919 13.1364 27.9091 13.1703C27.7472 13.1899 27.5854 13.2105 27.4238 13.232C27.3035 13.248 27.1831 13.2641 27.0629 13.2813C26.8986 13.3048 26.7344 13.3299 26.5702 13.3554C26.4532 13.3736 26.3361 13.3914 26.2191 13.4107C26.0477 13.439 25.8763 13.4693 25.705 13.4999C25.5957 13.5195 25.4864 13.538 25.3772 13.5584C25.1835 13.5946 24.99 13.6336 24.7965 13.6728C24.7103 13.6903 24.624 13.7065 24.5378 13.7245C24.2588 13.7828 23.9805 13.8441 23.7028 13.9083C23.6462 13.9214 23.5896 13.936 23.533 13.9494C23.3108 14.0019 23.0888 14.0553 22.8669 14.1117C22.7628 14.1381 22.6588 14.1665 22.5547 14.1938C22.3805 14.2395 22.2063 14.2852 22.0323 14.3333C21.9157 14.3656 21.7993 14.3995 21.6829 14.4329C21.5215 14.4791 21.3603 14.5253 21.1991 14.5735C21.0773 14.61 20.9557 14.6477 20.8341 14.6853C20.6783 14.7334 20.5227 14.7821 20.3673 14.8321C20.2432 14.8721 20.1193 14.9129 19.9956 14.954C19.9171 14.98 19.8385 15.0047 19.7602 15.0312V8.51953C19.7602 6.25189 21.3008 4.30139 23.5067 3.77631L30.4699 2.11881C31.64 1.84182 32.858 1.83682 34.0302 2.10421L41.4529 3.80652C43.682 4.31776 45.2388 6.27195 45.2388 8.55863C45.2388 8.68389 45.2634 8.80793 45.3114 8.92366C45.3593 9.03938 45.4295 9.14454 45.5181 9.23311C45.6067 9.32168 45.7118 9.39193 45.8276 9.43986C45.9433 9.48779 46.0673 9.51245 46.1926 9.51243C46.3178 9.51245 46.4419 9.48779 46.5576 9.43986C46.6733 9.39193 46.7785 9.32168 46.8671 9.23311C46.9556 9.14454 47.0259 9.03938 47.0738 8.92366C47.1217 8.80793 47.1464 8.68389 47.1464 8.55863C47.1464 5.37693 44.9804 2.65823 41.8794 1.94691L34.4565 0.244726C32.9984 -0.0876794 31.4834 -0.0813821 30.028 0.263135L23.0649 1.92063C19.9958 2.65112 17.8523 5.36475 17.8523 8.51966L17.8526 16.0543C17.5088 16.3446 17.2325 16.7065 17.0431 17.1147C16.8537 17.5228 16.7557 17.9675 16.756 18.4174V20.792C16.756 22.4698 18.0972 23.8402 19.7639 23.8875C20.0602 26.9858 21.4927 29.8284 23.7753 31.7937C24.2409 32.1955 24.7309 32.5679 25.2427 32.9089V35.5264C25.2427 36.1386 24.9541 36.8202 24.5275 37.2716C24.3111 37.2664 24.0954 37.2966 23.8887 37.361L12.2917 40.977C9.57144 41.7797 7.23588 43.4042 5.53674 45.6757C3.83633 47.949 2.9375 50.6512 2.9375 53.4903V54.2015C2.93748 54.3267 2.96214 54.4507 3.01007 54.5665C3.058 54.6822 3.12825 54.7874 3.21682 54.8759C3.3054 54.9645 3.41055 55.0348 3.52628 55.0827C3.642 55.1306 3.76604 55.1553 3.8913 55.1553C4.01656 55.1553 4.14059 55.1306 4.25632 55.0827C4.37205 55.0348 4.4772 54.9645 4.56577 54.8759C4.65435 54.7874 4.7246 54.6822 4.77253 54.5665C4.82045 54.4507 4.84511 54.3267 4.8451 54.2015V53.4903C4.8451 51.0663 5.61253 48.7592 7.06437 46.8184C8.51633 44.8774 10.5127 43.4895 12.8378 42.805L12.8523 42.8007L19.0284 40.8749L24.1881 46.7634C24.9305 47.6107 25.9814 48.0714 27.0641 48.0714C27.4862 48.0712 27.9054 48.0015 28.3049 47.865L29.471 47.4677L31.1139 50.9369C30.6092 51.1292 30.1428 51.4263 29.7407 51.8206C28.9609 52.5858 28.5136 53.6478 28.5136 54.734V60.5586C28.5136 61.3247 29.1368 61.9479 29.9029 61.9479H32.2927C33.0587 61.9479 33.6819 61.3247 33.6819 60.5586V58.4706C35.3089 57.9621 36.485 56.4332 36.485 54.6656C36.485 52.9691 35.3994 51.5014 33.8869 50.9323L35.5278 47.4675L36.6937 47.8647C37.0932 48.0012 37.5125 48.0709 37.9347 48.0711C39.0173 48.0711 40.0682 47.6103 40.8107 46.763L45.9703 40.8747L52.1464 42.8004L52.1609 42.8047C54.4861 43.4893 56.4825 44.8771 57.9344 46.8181C59.3862 48.759 60.1536 51.0661 60.1536 53.49V61.6532C60.1536 62.4467 59.5081 63.0924 58.7145 63.0924H53.9292V53.9588C53.9293 53.8336 53.9046 53.7096 53.8567 53.5938C53.8087 53.4781 53.7385 53.3729 53.6499 53.2844C53.5613 53.1958 53.4562 53.1255 53.3405 53.0776C53.2247 53.0297 53.1007 53.005 52.9754 53.0051C52.8502 53.005 52.7261 53.0297 52.6104 53.0776C52.4947 53.1255 52.3895 53.1958 52.301 53.2844C52.2124 53.3729 52.1421 53.4781 52.0942 53.5938C52.0463 53.7096 52.0216 53.8336 52.0216 53.9588V63.0922H12.9771V53.9588C12.9771 53.432 12.5501 53.0051 12.0233 53.0051C11.4964 53.0051 11.0695 53.432 11.0695 53.9588V63.0922H6.28424C5.49078 63.0922 4.8451 62.4467 4.8451 61.6531V58.6392C4.8451 58.1124 4.41815 57.6854 3.8913 57.6854C3.36444 57.6854 2.9375 58.1124 2.9375 58.6392V61.6531C2.9375 63.4986 4.43885 65 6.28437 65H58.7149C60.5604 65 62.0617 63.4986 62.0617 61.6531V53.4899C62.0615 50.651 61.1626 47.9488 59.4622 45.6754ZM20.7665 16.7071C20.8449 16.6815 20.9235 16.6576 21.0019 16.6325C21.1908 16.5719 21.3797 16.5116 21.5689 16.4541C21.6693 16.4235 21.7701 16.3948 21.8707 16.3651C22.0385 16.3155 22.2063 16.2658 22.3744 16.2186C22.484 16.1878 22.5937 16.1587 22.7033 16.129C22.8627 16.0857 23.0219 16.0424 23.1813 16.0013C23.2962 15.9716 23.4114 15.9434 23.5264 15.9148C23.681 15.8763 23.8355 15.8381 23.9903 15.8017C24.1085 15.7739 24.2268 15.7472 24.3451 15.7206C24.4968 15.6863 24.6486 15.6525 24.8005 15.6201C24.9208 15.5945 25.0413 15.5699 25.1618 15.5455C25.433 15.4905 25.7048 15.4384 25.9772 15.3893C26.3979 15.3134 26.8199 15.2448 27.2431 15.1836C27.3645 15.1659 27.4862 15.1485 27.6078 15.132C27.7591 15.1116 27.9104 15.0927 28.0618 15.0741C28.1823 15.0594 28.3026 15.0444 28.4231 15.031C28.5766 15.0137 28.7301 14.9983 28.8835 14.983C29.0017 14.9712 29.1201 14.9588 29.2384 14.9482C29.3958 14.934 29.5532 14.922 29.7106 14.9098C29.825 14.9011 29.9395 14.8914 30.0539 14.8837C30.2187 14.8725 30.3834 14.8639 30.5482 14.855C30.6552 14.8493 30.7622 14.8423 30.8691 14.8375C31.0511 14.8292 31.2333 14.8239 31.4154 14.8184C31.5051 14.8158 31.5949 14.8117 31.6846 14.8097C31.9562 14.8036 32.2279 14.8002 32.4993 14.8002H32.5012C32.7721 14.8002 33.0432 14.8035 33.3142 14.8096C33.4046 14.8116 33.495 14.8156 33.5853 14.8184C33.7664 14.8239 33.9476 14.8292 34.1287 14.8374C34.2375 14.8423 34.3462 14.8493 34.455 14.8551C34.618 14.8639 34.781 14.8725 34.944 14.8834C35.0601 14.8913 35.1761 14.901 35.2921 14.91C35.4478 14.9219 35.6034 14.9338 35.7589 14.9478C35.879 14.9586 35.999 14.971 36.1191 14.9831C36.2708 14.9982 36.4225 15.0134 36.5741 15.0306C36.6962 15.0443 36.8182 15.0594 36.9404 15.0744C37.0899 15.0927 37.2395 15.1113 37.3889 15.1315C37.5123 15.1481 37.6358 15.1659 37.7592 15.1838C38.1802 15.2445 38.6001 15.3128 39.0186 15.3885C39.5645 15.4865 40.1082 15.5968 40.6492 15.7192C40.7702 15.7465 40.891 15.7736 41.0119 15.8021C41.1632 15.8377 41.3144 15.8751 41.4655 15.9126C41.5839 15.9421 41.7025 15.9712 41.8208 16.0018C41.9758 16.0419 42.1307 16.0839 42.2855 16.1259C42.3996 16.1569 42.5137 16.1872 42.6279 16.2192C42.79 16.2648 42.952 16.3128 43.114 16.3607C43.2204 16.392 43.3269 16.4225 43.4331 16.4547C43.6121 16.5092 43.791 16.5665 43.9698 16.6236C44.0585 16.652 44.1474 16.6791 44.2361 16.708C44.4843 16.7893 44.7321 16.8734 44.9797 16.9598C44.9987 16.9664 45.0179 16.9726 45.0371 16.9792L45.0443 16.9818L44.7993 17.8929C44.7555 18.058 44.6786 18.2125 44.5733 18.347C44.468 18.4816 44.3364 18.5933 44.1866 18.6754C44.0398 18.7574 43.8779 18.8087 43.7107 18.8263C43.5434 18.8439 43.3744 18.8273 43.2138 18.7776C42.7714 18.6417 42.3266 18.5137 41.8796 18.3937C35.2037 16.6023 28.4509 16.7301 21.7855 18.7776C21.6249 18.8273 21.4559 18.8439 21.2887 18.8263C21.1215 18.8087 20.9596 18.7574 20.8129 18.6754C20.663 18.5933 20.5315 18.4816 20.4261 18.3471C20.3208 18.2125 20.2439 18.058 20.2001 17.8929L20.0804 17.4476L19.9552 16.9818C20.2247 16.8875 20.4952 16.7959 20.7665 16.7071ZM25.0201 30.3479C22.9198 28.5395 21.6793 25.83 21.6167 22.9142C21.6114 22.6649 21.5086 22.4275 21.3303 22.253C21.152 22.0785 20.9125 21.9809 20.6631 21.9809H19.8526C19.1969 21.9809 18.6637 21.4475 18.6637 20.792V19.1373C18.6666 19.1423 18.67 19.1473 18.673 19.1524C18.7362 19.2623 18.8061 19.3682 18.8822 19.4696C18.892 19.4827 18.9013 19.496 18.9114 19.509C18.9504 19.5592 18.9906 19.6085 19.0326 19.6564C19.0423 19.6674 19.0524 19.6779 19.0622 19.6889C19.1095 19.7416 19.1586 19.7925 19.2096 19.8417C19.2479 19.8789 19.2872 19.9151 19.3274 19.9503C19.3363 19.958 19.3448 19.9663 19.3538 19.9739C19.4028 20.0158 19.4533 20.056 19.505 20.0951C19.5188 20.1055 19.5329 20.1154 19.5469 20.1257C19.5878 20.1555 19.6293 20.1845 19.6718 20.2124C19.6872 20.2226 19.7025 20.2329 19.7182 20.2428C19.7741 20.2783 19.831 20.313 19.8896 20.3453L19.8975 20.3494C19.9491 20.3777 20.0011 20.4042 20.0537 20.4295C20.072 20.4383 20.0904 20.4464 20.1088 20.4548C20.205 20.4991 20.3034 20.5385 20.4037 20.5726C20.4219 20.5788 20.4399 20.5854 20.4582 20.5912C20.5153 20.6097 20.5727 20.6268 20.6304 20.6418C20.6374 20.6436 20.6445 20.645 20.6515 20.6467C20.7029 20.6598 20.7546 20.6714 20.8065 20.6818C20.8263 20.6857 20.8461 20.689 20.8661 20.6926C20.9686 20.7111 21.072 20.7243 21.1758 20.7322C21.1945 20.7336 21.2132 20.7355 21.2318 20.7366C21.2909 20.74 21.3499 20.7422 21.4092 20.7422L21.4145 20.7423C21.4207 20.7423 21.4268 20.7417 21.433 20.7416C21.5133 20.741 21.5934 20.7373 21.6734 20.7306C21.7419 20.7249 21.8106 20.7177 21.879 20.7074C21.8837 20.7066 21.8884 20.7056 21.8931 20.705C21.9768 20.6919 22.0599 20.6755 22.1422 20.6557C22.207 20.6404 22.2716 20.6235 22.3359 20.6039C22.3391 20.6031 22.3423 20.6024 22.3455 20.6014C24.0299 20.0839 25.7203 19.6958 27.4137 19.4371C31.4353 18.8228 35.4737 18.9379 39.4888 19.7827C40.5555 20.0075 41.6114 20.2806 42.6533 20.6012C43.4788 20.8552 44.3514 20.764 45.1092 20.3451C45.1674 20.3128 45.2239 20.2786 45.2797 20.2431C45.296 20.2327 45.3122 20.2219 45.3283 20.2113C45.3699 20.1838 45.4108 20.1554 45.4511 20.126C45.4654 20.1154 45.48 20.1053 45.4941 20.0946C45.5456 20.0558 45.5959 20.0154 45.645 19.9736C45.6539 19.966 45.6623 19.958 45.6711 19.9503C45.7263 19.9019 45.7798 19.8516 45.8315 19.7996C45.8678 19.763 45.9033 19.7256 45.9377 19.6873C45.9469 19.6771 45.9566 19.667 45.9657 19.6566C46.0079 19.6085 46.0485 19.5591 46.0875 19.5085C46.0972 19.4958 46.1065 19.4828 46.116 19.47C46.1576 19.4146 46.1973 19.3578 46.2351 19.2998C46.2662 19.2518 46.2963 19.2031 46.3249 19.1535C46.328 19.1479 46.3317 19.1427 46.3349 19.1371V20.7918C46.3349 21.4475 45.8016 21.9808 45.146 21.9808H44.3355C44.0861 21.9808 43.8466 22.0785 43.6684 22.253C43.4901 22.4274 43.3873 22.6648 43.3818 22.9141C43.3193 25.8298 42.0788 28.5394 39.9785 30.3477C39.4584 30.7969 38.9026 31.2029 38.3164 31.5616C38.3132 31.5636 38.3098 31.5648 38.3066 31.5667C38.2182 31.6204 38.1289 31.672 38.0395 31.7231C38.0116 31.7391 37.9837 31.7558 37.9556 31.7715C37.8614 31.8244 37.7666 31.8756 37.6712 31.9256L37.5941 31.9657C37.1624 32.1887 36.7167 32.3835 36.2599 32.549L36.2259 32.5612C35.8835 32.6837 35.5352 32.7894 35.1824 32.8778C35.1724 32.8803 35.1625 32.8831 35.1525 32.8855C35.0091 32.9208 34.865 32.9532 34.7203 32.9828C34.6269 33.0021 34.5333 33.0207 34.4393 33.0376C34.3809 33.048 34.322 33.0572 34.2632 33.0667C34.1337 33.0879 34.0038 33.1069 33.8737 33.1237C33.785 33.1351 33.6962 33.1464 33.6068 33.1557C33.5426 33.1624 33.4781 33.168 33.4136 33.1737C33.3174 33.1822 33.2212 33.1895 33.1248 33.1957C33.0689 33.1992 33.0131 33.203 32.9571 33.2058C32.8126 33.2132 32.668 33.2179 32.5233 33.2202C32.5152 33.2203 32.507 33.2208 32.4989 33.2208L32.4745 33.2202C32.3299 33.2179 32.1852 33.2132 32.0407 33.2058C31.9846 33.203 31.9289 33.1992 31.873 33.1957C31.7767 33.1895 31.6804 33.1822 31.5842 33.1737C31.5197 33.168 31.4552 33.1624 31.391 33.1557C31.3016 33.1463 31.2129 33.135 31.1241 33.1237C30.994 33.1069 30.8641 33.0879 30.7346 33.0667C30.676 33.0572 30.6171 33.048 30.5586 33.0376C30.4218 33.0126 30.2856 32.9853 30.1498 32.9557C30.048 32.9337 29.9465 32.9103 29.8453 32.8855L29.8154 32.8778C29.4626 32.7893 29.1144 32.6836 28.772 32.5612L28.7379 32.549C28.2811 32.3835 27.8355 32.1887 27.4038 31.9657C27.378 31.9524 27.3522 31.9392 27.3266 31.9256C27.2311 31.8756 27.1363 31.8242 27.0422 31.7715C27.0142 31.7558 26.9864 31.7393 26.9583 31.7231C26.8686 31.6721 26.7796 31.62 26.6912 31.5667C26.688 31.5648 26.6846 31.5636 26.6814 31.5616C26.0956 31.2029 25.5399 30.797 25.0201 30.3479ZM27.6898 46.0587C27.3293 46.1824 26.9402 46.1959 26.572 46.0974C26.2039 45.9989 25.8734 45.7929 25.6229 45.5058L21.0207 40.2535L24.4567 39.1821C24.4609 39.1809 24.4652 39.1823 24.4695 39.1816C24.4803 39.18 24.4911 39.1782 24.5015 39.1805L24.5065 39.1826C24.5158 39.1858 24.5245 39.1905 24.5322 39.1965C24.5358 39.1989 24.5401 39.1994 24.5433 39.2025L24.5431 39.2023L30.6972 45.0344L27.6898 46.0587ZM34.5774 54.6653C34.5774 55.7463 33.7339 56.656 32.6571 56.7363C32.4171 56.7543 32.1927 56.8623 32.029 57.0387C31.8653 57.2151 31.7743 57.4469 31.7743 57.6876V60.0398H30.4213V54.7335C30.4213 54.1561 30.6603 53.5906 31.0769 53.1818C31.478 52.7885 32.0001 52.5762 32.5399 52.5876C33.6635 52.609 34.5774 53.541 34.5774 54.6653ZM31.2885 46.8482L32.4994 46.4356L33.7103 46.8481L32.4994 49.405L31.2885 46.8482ZM32.4994 44.1138L26.2441 38.1857C26.8077 37.4227 27.1504 36.4551 27.1504 35.5261V33.9647C27.9801 34.3404 28.8472 34.6271 29.7373 34.8202L29.7462 34.8221C30.0017 34.8775 30.2589 34.9253 30.5173 34.9653C30.6116 34.9799 30.706 34.9943 30.8009 35.0069C30.9295 35.0242 31.0586 35.0393 31.1881 35.053C31.246 35.059 31.3039 35.0649 31.3621 35.0703C31.5212 35.085 31.6811 35.097 31.8418 35.1063C31.8777 35.1083 31.9138 35.1097 31.9497 35.1115C32.1287 35.1204 32.3082 35.1269 32.489 35.1289H32.5103C32.691 35.1269 32.8706 35.1204 33.0496 35.1115C33.0856 35.1097 33.1216 35.1083 33.1575 35.1063C33.3181 35.0972 33.4781 35.085 33.6373 35.0703C33.6954 35.0649 33.7533 35.059 33.8112 35.053C33.9405 35.0395 34.0696 35.0241 34.1984 35.0069C34.36 34.985 34.5211 34.9602 34.6817 34.9325C34.873 34.8999 35.0634 34.863 35.253 34.8221L35.2619 34.8202C36.152 34.6271 37.0191 34.3404 37.8489 33.9647V35.5261C37.8489 36.4551 38.1915 37.4227 38.7552 38.1857L32.4994 44.1138ZM39.3761 45.5055C39.1256 45.7928 38.7951 45.9989 38.4269 46.0974C38.0587 46.1959 37.6695 46.1824 37.309 46.0586L34.3016 45.0342L39.3979 40.2045L40.4554 39.2023C40.457 39.2009 40.459 39.2007 40.4607 39.1995C40.4696 39.1922 40.4799 39.1866 40.491 39.1832C40.4933 39.1824 40.4953 39.1811 40.4976 39.1804C40.5125 39.177 40.5281 39.1776 40.5427 39.1821L43.9784 40.2534L39.3761 45.5055Z" fill="#9BCBCA"/>
</g>
<defs>
<clipPath id="clip0_1319_12056">
<rect width="65" height="65" fill="white"/>
</clipPath>
</defs>
</svg>
