<svg width="512" height="354" viewBox="0 0 512 354" fill="none" xmlns="http://www.w3.org/2000/svg">
<path d="M0 0V353.65H512V0H0ZM263.918 68.619H385.32V168.908H263.918V68.619ZM263.918 184.743H385.32V285.032H263.918V184.743ZM15.835 68.619H110.845V285.031H15.835V68.619ZM248.082 337.815H15.835V300.867H248.082V337.815ZM248.082 285.031H126.68V184.743H248.082V285.031ZM248.082 168.907H126.68V68.619H248.082V168.907ZM248.082 52.784H15.835V15.835H248.082V52.784ZM496.165 337.815H263.918V300.867H496.165V337.815ZM496.165 285.031H401.155V68.619H496.165V285.031ZM496.165 52.784H263.918V15.835H496.165V52.784Z" fill="#666666"/>
</svg>
