<svg width="48" height="48" viewBox="0 0 48 48" fill="none" xmlns="http://www.w3.org/2000/svg">
<path d="M32.2 6C32.0688 6.64622 32 7.31506 32 8C32 8.68494 32.0688 9.35378 32.2 10H9.02292L24.1238 23.324L34.2196 14.2828C35.0726 15.3378 36.1358 16.2157 37.3456 16.853L24.1436 28.676L8 14.4319V38H40V17.8C40.6462 17.9311 41.315 18 42 18C42.685 18 43.3538 17.9311 44 17.8V40C44 41.1046 43.1046 42 42 42H6C4.89544 42 4 41.1046 4 40V8C4 6.89544 4.89544 6 6 6H32.2ZM42 2C45.3138 2 48 4.6863 48 8C48 11.3137 45.3138 14 42 14C38.6862 14 36 11.3137 36 8C36 4.6863 38.6862 2 42 2Z" fill="black"/>
<path d="M42 2C45.3138 2 48 4.6863 48 8C48 11.3137 45.3138 14 42 14C38.6862 14 36 11.3137 36 8C36 4.6863 38.6862 2 42 2Z" fill="#00AFFF"/>
</svg>
