<svg width="221" height="40" viewBox="0 0 221 40" fill="none" xmlns="http://www.w3.org/2000/svg">
<g clip-path="url(#clip0_1521_2300)">
<path fill-rule="evenodd" clip-rule="evenodd" d="M39.9795 18.9966C39.8744 17.1254 39.5275 15.3173 38.9598 13.6247C38.4552 12.1215 37.7719 10.6918 36.9414 9.36719H25.4408C28.0163 12.174 29.5827 15.906 29.5827 20.0058C29.5827 24.1057 28.0058 27.8481 25.4408 30.6339H36.9414C37.7719 29.3094 38.4657 27.8902 38.9598 26.3764C39.5275 24.6839 39.8849 22.8968 39.969 21.0255V20.994V20.9625V20.8573V20.7837V20.7522V20.6786V20.4789V20.4053V20.3422V20.153V19.8061V19.6063V19.4592V19.4066V19.1333V19.1017V18.9651L39.9795 18.9966ZM12.584 20.0058C12.584 16.9993 15.0124 14.5709 18.0189 14.5709C21.0255 14.5709 23.4539 16.9993 23.4539 20.0058C23.4539 23.0124 21.0255 25.4408 18.0189 25.4408C15.0124 25.4408 12.584 23.0124 12.584 20.0058Z" fill="url(#paint0_linear_1521_2300)"/>
<path fill-rule="evenodd" clip-rule="evenodd" d="M0 20.0053C0 8.95664 8.94612 0 19.9947 0C25.1353 0 29.8029 1.9343 33.3561 5.10907H25.1248C23.5164 4.56242 21.7924 4.25756 19.9947 4.25756C11.3009 4.25756 4.25756 11.3009 4.25756 20.0053C4.25756 28.7096 11.3009 35.7424 19.9947 35.7424C21.7819 35.7424 23.5059 35.4481 25.1248 34.8909H33.3561C29.8134 38.0762 25.1353 40 19.9947 40C8.94612 40 0 31.0434 0 20.0053Z" fill="white"/>
</g>
<path d="M55.96 27.7C54.9333 27.7 53.98 27.52 53.1 27.16C52.22 26.7867 51.4467 26.2733 50.78 25.62C50.1267 24.9533 49.62 24.18 49.26 23.3C48.9133 22.42 48.74 21.4733 48.74 20.46C48.74 19.4467 48.9133 18.5 49.26 17.62C49.62 16.74 50.1267 15.9733 50.78 15.32C51.4467 14.6667 52.2133 14.1533 53.08 13.78C53.96 13.4067 54.92 13.22 55.96 13.22C57.08 13.22 58.0667 13.4067 58.92 13.78C59.7733 14.14 60.5267 14.64 61.18 15.28L59.34 17.12C58.9533 16.6933 58.48 16.36 57.92 16.12C57.36 15.88 56.7067 15.76 55.96 15.76C55.3067 15.76 54.7067 15.8733 54.16 16.1C53.6267 16.3133 53.16 16.6333 52.76 17.06C52.36 17.4733 52.0533 17.9733 51.84 18.56C51.6267 19.1333 51.52 19.7667 51.52 20.46C51.52 21.1667 51.6267 21.8067 51.84 22.38C52.0533 22.9533 52.36 23.4533 52.76 23.88C53.16 24.2933 53.6267 24.6133 54.16 24.84C54.7067 25.0667 55.3067 25.18 55.96 25.18C56.7467 25.18 57.42 25.06 57.98 24.82C58.5533 24.58 59.0333 24.24 59.42 23.8L61.26 25.64C60.6067 26.2933 59.8467 26.8 58.98 27.16C58.1133 27.52 57.1067 27.7 55.96 27.7ZM63.1509 27.5V13.44H65.8709V27.5H63.1509ZM71.9709 27.5V13.44H74.6909V27.5H71.9709ZM64.8709 21.44V19.04H72.7309V21.44H64.8709ZM76.525 27.5L82.185 13.44H84.405L90.045 27.5H87.145L82.785 15.96H83.785L79.365 27.5H76.525ZM79.525 24.88V22.6H87.085V24.88H79.525ZM91.7056 27.5V13.44H93.6256L99.3256 22.56H98.2256L103.906 13.44H105.826V27.5H103.126V18.1L103.646 18.26L99.6856 24.62H97.8456L93.8856 18.26L94.4256 18.1V27.5H91.7056ZM110.698 22.28V20.06H113.958C114.384 20.06 114.771 19.9733 115.118 19.8C115.464 19.6267 115.738 19.38 115.938 19.06C116.138 18.7267 116.238 18.3267 116.238 17.86C116.238 17.4067 116.138 17.0133 115.938 16.68C115.738 16.3467 115.464 16.0933 115.118 15.92C114.771 15.7467 114.384 15.66 113.958 15.66H110.698V13.44H114.238C115.131 13.44 115.931 13.62 116.638 13.98C117.358 14.34 117.924 14.8533 118.338 15.52C118.751 16.1733 118.958 16.9533 118.958 17.86C118.958 18.7667 118.751 19.5533 118.338 20.22C117.924 20.8733 117.358 21.38 116.638 21.74C115.931 22.1 115.131 22.28 114.238 22.28H110.698ZM108.698 27.5V13.44H111.418V27.5H108.698ZM120.885 27.5V13.44H123.605V27.5H120.885ZM133.071 27.72C132.044 27.72 131.084 27.5333 130.191 27.16C129.311 26.7867 128.537 26.2733 127.871 25.62C127.217 24.9533 126.704 24.18 126.331 23.3C125.957 22.4067 125.771 21.4533 125.771 20.44C125.771 19.4267 125.951 18.4867 126.311 17.62C126.684 16.74 127.197 15.9733 127.851 15.32C128.517 14.6533 129.291 14.14 130.171 13.78C131.051 13.4067 132.004 13.22 133.031 13.22C134.071 13.22 135.031 13.4067 135.911 13.78C136.791 14.14 137.557 14.6533 138.211 15.32C138.877 15.9733 139.397 16.74 139.771 17.62C140.144 18.5 140.331 19.4467 140.331 20.46C140.331 21.4733 140.144 22.42 139.771 23.3C139.397 24.18 138.877 24.9533 138.211 25.62C137.557 26.2733 136.791 26.7867 135.911 27.16C135.044 27.5333 134.097 27.72 133.071 27.72ZM133.031 25.18C133.937 25.18 134.724 24.98 135.391 24.58C136.057 24.18 136.577 23.6267 136.951 22.92C137.337 22.2133 137.531 21.3867 137.531 20.44C137.531 19.7467 137.424 19.1133 137.211 18.54C136.997 17.9667 136.691 17.4733 136.291 17.06C135.891 16.6333 135.417 16.3067 134.871 16.08C134.324 15.8533 133.711 15.74 133.031 15.74C132.151 15.74 131.371 15.94 130.691 16.34C130.024 16.7267 129.497 17.2733 129.111 17.98C128.737 18.6867 128.551 19.5067 128.551 20.44C128.551 21.1467 128.657 21.7933 128.871 22.38C129.097 22.9667 129.404 23.4667 129.791 23.88C130.191 24.2933 130.664 24.6133 131.211 24.84C131.771 25.0667 132.377 25.18 133.031 25.18ZM142.487 27.5V13.44H144.387L145.207 16.16V27.5H142.487ZM152.207 27.5L143.867 16.7L144.387 13.44L152.727 24.24L152.207 27.5ZM152.207 27.5L151.427 24.86V13.44H154.167V27.5H152.207ZM160.825 27.7C159.691 27.7 158.718 27.5067 157.905 27.12C157.105 26.7333 156.378 26.1533 155.725 25.38L157.525 23.58C157.938 24.1267 158.418 24.5533 158.965 24.86C159.511 25.1533 160.178 25.3 160.965 25.3C161.671 25.3 162.231 25.16 162.645 24.88C163.071 24.6 163.285 24.2133 163.285 23.72C163.285 23.2933 163.165 22.9467 162.925 22.68C162.685 22.4133 162.365 22.1867 161.965 22C161.578 21.8133 161.145 21.6467 160.665 21.5C160.198 21.34 159.725 21.16 159.245 20.96C158.778 20.76 158.345 20.5133 157.945 20.22C157.558 19.9133 157.245 19.5267 157.005 19.06C156.765 18.58 156.645 17.98 156.645 17.26C156.645 16.4067 156.851 15.68 157.265 15.08C157.678 14.48 158.245 14.02 158.965 13.7C159.685 13.38 160.498 13.22 161.405 13.22C162.365 13.22 163.231 13.4 164.005 13.76C164.778 14.12 165.411 14.5867 165.905 15.16L164.105 16.96C163.691 16.5067 163.265 16.1733 162.825 15.96C162.398 15.7467 161.911 15.64 161.365 15.64C160.738 15.64 160.245 15.76 159.885 16C159.525 16.24 159.345 16.5867 159.345 17.04C159.345 17.4267 159.465 17.74 159.705 17.98C159.945 18.22 160.258 18.4267 160.645 18.6C161.045 18.7733 161.478 18.94 161.945 19.1C162.425 19.26 162.898 19.44 163.365 19.64C163.845 19.84 164.278 20.1 164.665 20.42C165.065 20.74 165.385 21.1533 165.625 21.66C165.865 22.1533 165.985 22.7667 165.985 23.5C165.985 24.8067 165.525 25.8333 164.605 26.58C163.685 27.3267 162.425 27.7 160.825 27.7Z" fill="white"/>
<path d="M168.131 27.5V13.44H170.851V27.5H168.131ZM176.951 27.5V13.44H179.671V27.5H176.951ZM169.851 21.44V19.04H177.711V21.44H169.851ZM188.085 27.7C186.979 27.7 185.992 27.46 185.125 26.98C184.272 26.4867 183.599 25.8133 183.105 24.96C182.612 24.1067 182.365 23.14 182.365 22.06V13.44H185.085V22.14C185.085 22.7667 185.212 23.3067 185.465 23.76C185.732 24.2133 186.092 24.5667 186.545 24.82C187.012 25.06 187.525 25.18 188.085 25.18C188.659 25.18 189.165 25.06 189.605 24.82C190.045 24.5667 190.392 24.2133 190.645 23.76C190.912 23.3067 191.045 22.7733 191.045 22.16V13.44H193.785V22.08C193.785 23.16 193.539 24.1267 193.045 24.98C192.552 25.82 191.879 26.4867 191.025 26.98C190.185 27.46 189.205 27.7 188.085 27.7ZM198.471 27.5V25.28H202.131C202.785 25.28 203.291 25.08 203.651 24.68C204.025 24.28 204.211 23.8067 204.211 23.26C204.211 22.8867 204.131 22.5467 203.971 22.24C203.811 21.9333 203.571 21.6933 203.251 21.52C202.945 21.3333 202.571 21.24 202.131 21.24H198.471V19.04H201.831C202.391 19.04 202.838 18.9 203.171 18.62C203.518 18.34 203.691 17.92 203.691 17.36C203.691 16.7867 203.518 16.36 203.171 16.08C202.838 15.8 202.391 15.66 201.831 15.66H198.471V13.44H202.151C203.085 13.44 203.865 13.6133 204.491 13.96C205.131 14.2933 205.611 14.74 205.931 15.3C206.251 15.8467 206.411 16.4467 206.411 17.1C206.411 17.9 206.165 18.5933 205.671 19.18C205.191 19.7533 204.485 20.18 203.551 20.46L203.671 19.58C204.711 19.8733 205.511 20.36 206.071 21.04C206.645 21.7067 206.931 22.5133 206.931 23.46C206.931 24.2067 206.745 24.8867 206.371 25.5C206.011 26.1 205.478 26.5867 204.771 26.96C204.078 27.32 203.231 27.5 202.231 27.5H198.471ZM196.471 27.5V13.44H199.171V27.5H196.471ZM211.088 27.5V25.28H214.748C215.402 25.28 215.908 25.08 216.268 24.68C216.642 24.28 216.828 23.8067 216.828 23.26C216.828 22.8867 216.748 22.5467 216.588 22.24C216.428 21.9333 216.188 21.6933 215.868 21.52C215.562 21.3333 215.188 21.24 214.748 21.24H211.088V19.04H214.448C215.008 19.04 215.455 18.9 215.788 18.62C216.135 18.34 216.308 17.92 216.308 17.36C216.308 16.7867 216.135 16.36 215.788 16.08C215.455 15.8 215.008 15.66 214.448 15.66H211.088V13.44H214.768C215.702 13.44 216.482 13.6133 217.108 13.96C217.748 14.2933 218.228 14.74 218.548 15.3C218.868 15.8467 219.028 16.4467 219.028 17.1C219.028 17.9 218.782 18.5933 218.288 19.18C217.808 19.7533 217.102 20.18 216.168 20.46L216.288 19.58C217.328 19.8733 218.128 20.36 218.688 21.04C219.262 21.7067 219.548 22.5133 219.548 23.46C219.548 24.2067 219.362 24.8867 218.988 25.5C218.628 26.1 218.095 26.5867 217.388 26.96C216.695 27.32 215.848 27.5 214.848 27.5H211.088ZM209.088 27.5V13.44H211.788V27.5H209.088Z" fill="url(#paint1_linear_1521_2300)"/>
<defs>
<linearGradient id="paint0_linear_1521_2300" x1="9.87176" y1="19.9953" x2="44.4053" y2="19.9953" gradientUnits="userSpaceOnUse">
<stop stop-color="#00FF8F"/>
<stop offset="1" stop-color="#00AFFF"/>
</linearGradient>
<linearGradient id="paint1_linear_1521_2300" x1="167.115" y1="14.2918" x2="211.473" y2="-6.2658" gradientUnits="userSpaceOnUse">
<stop stop-color="white"/>
<stop offset="1" stop-color="#00AFFF"/>
</linearGradient>
<clipPath id="clip0_1521_2300">
<rect width="40" height="40" fill="white"/>
</clipPath>
</defs>
</svg>
