<svg width="40" height="40" viewBox="0 0 40 40" fill="none" xmlns="http://www.w3.org/2000/svg">
<g clip-path="url(#clip0_1319_11891)">
<path fill-rule="evenodd" clip-rule="evenodd" d="M39.9785 18.9956C39.8734 17.1244 39.5265 15.3163 38.9588 13.6238C38.4542 12.1205 37.7709 10.6908 36.9404 9.36621H25.4398C28.0153 12.173 29.5817 15.905 29.5817 20.0048C29.5817 24.1047 28.0048 27.8472 25.4398 30.633H36.9404C37.7709 29.3084 38.4647 27.8892 38.9588 26.3754C39.5265 24.6829 39.8839 22.8958 39.968 21.0246V20.993V20.9615V20.8564V20.7828V20.7512V20.6776V20.4779V20.4043V20.3412V20.152V19.8051V19.6054V19.4582V19.4056V19.1323V19.1008V18.9641L39.9785 18.9956ZM12.583 20.0048C12.583 16.9983 15.0114 14.5699 18.018 14.5699C21.0245 14.5699 23.4529 16.9983 23.4529 20.0048C23.4529 23.0114 21.0245 25.4398 18.018 25.4398C15.0114 25.4398 12.583 23.0114 12.583 20.0048Z" fill="url(#paint0_linear_1319_11891)"/>
<path fill-rule="evenodd" clip-rule="evenodd" d="M0 20.0053C0 8.95664 8.94612 0 19.9947 0C25.1353 0 29.8029 1.9343 33.3561 5.10907H25.1248C23.5164 4.56242 21.7924 4.25756 19.9947 4.25756C11.3009 4.25756 4.25756 11.3009 4.25756 20.0053C4.25756 28.7096 11.3009 35.7424 19.9947 35.7424C21.7819 35.7424 23.5059 35.4481 25.1248 34.8909H33.3561C29.8134 38.0762 25.1353 40 19.9947 40C8.94612 40 0 31.0434 0 20.0053Z" fill="black"/>
</g>
<defs>
<linearGradient id="paint0_linear_1319_11891" x1="9.87079" y1="19.9943" x2="44.4043" y2="19.9943" gradientUnits="userSpaceOnUse">
<stop stop-color="#00FF8F"/>
<stop offset="1" stop-color="#00AFFF"/>
</linearGradient>
<clipPath id="clip0_1319_11891">
<rect width="40" height="40" fill="white"/>
</clipPath>
</defs>
</svg>
