<svg width="65" height="65" viewBox="0 0 65 65" fill="none" xmlns="http://www.w3.org/2000/svg">
<g clip-path="url(#clip0_1319_12049)">
<path d="M64.9557 59.6572L63.3242 45.0801C62.7618 40.1212 62.8279 38.779 61.7008 37.0831C59.6511 33.9982 56.3406 34.0338 51.3323 32.6375V32.3441H57.0414C58.3998 32.3441 59.5071 31.2475 59.5238 29.8927L60.2762 17.1441C60.291 16.892 60.2051 16.6444 60.0374 16.4557C59.8697 16.2669 59.6338 16.1525 59.3818 16.1376C58.8552 16.1055 58.4061 16.5069 58.3753 17.0319C57.5905 30.343 57.6201 29.8051 57.6201 29.8613C57.6201 30.175 57.355 30.4399 57.0414 30.4399H51.3323V30.1935C54.158 28.6668 56.2995 26.0937 56.9534 22.7471C57.2014 21.5487 57.1383 20.6536 57.1447 18.6091C57.1453 18.103 56.9505 17.6161 56.6009 17.2501C56.2513 16.884 55.7739 16.667 55.2682 16.6443C48.7587 16.3401 45.1847 12.8285 43.9502 11.3327C43.7848 11.1323 43.5785 10.9694 43.3452 10.8549C43.1119 10.7403 42.8569 10.6767 42.5972 10.6684C42.3375 10.6595 42.0788 10.7063 41.8387 10.8056C41.5985 10.905 41.3824 11.0546 41.2049 11.2443C39.9605 12.5688 38.6049 13.0783 37.6868 13.2725C36.6965 13.4819 35.9778 14.365 35.9778 15.3725C35.9814 20.9971 35.9701 20.7266 35.9866 21.161C36.0496 22.7521 36.4895 24.3623 37.1082 25.5068C38.3995 28.0684 40.1076 29.1724 41.7531 30.1752V30.4407C41.662 30.4393 38.7764 30.4403 36.1772 30.4399C35.8635 30.4399 35.5986 30.175 35.5986 29.8613C35.5986 29.8054 35.6305 30.3825 34.8317 16.836C34.8306 16.8185 34.829 16.8011 34.8271 16.7837C34.8158 16.6848 33.7643 6.87767 39.2705 5.66742C39.5476 5.60648 39.7798 5.43142 39.9095 5.17903C40.0062 4.99774 42.3623 0.758397 49.8595 2.21823C49.8868 2.22356 49.9446 2.24235 49.9955 2.25898C55.125 3.93375 58.0323 8.0676 58.3556 12.7117C58.3641 12.8364 58.3972 12.9583 58.4529 13.0703C58.5086 13.1823 58.5858 13.2822 58.6802 13.3642C58.7746 13.4463 58.8842 13.5089 59.0028 13.5486C59.1215 13.5882 59.2467 13.604 59.3715 13.5951C59.6234 13.5776 59.8579 13.4607 60.0236 13.2702C60.1893 13.0796 60.2725 12.8311 60.255 12.5793C59.8783 7.16724 56.324 2.34899 50.8462 0.532802C50.573 0.443173 50.3856 0.381093 50.2234 0.349481C44.3215 -0.799698 40.3118 1.18267 38.4608 3.90874C35.6517 4.70651 33.8114 7.2113 33.127 11.1828C32.6378 14.0207 32.898 16.6545 32.9325 16.9728L33.695 29.8927C33.7117 31.2472 34.8188 32.3441 36.1773 32.3441C37.4203 32.344 41.6672 32.3447 41.7532 32.3433V32.6375C35.6666 34.1527 34.2523 34.2705 32.4925 35.8188C30.5702 34.1307 28.8626 34.1172 25.5504 33.214L23.2353 32.1058V30.1734C26.7513 28.3536 29.0062 24.7696 29.0062 20.7463V20.7369C31.61 20.1695 32.8201 17.5314 31.4045 15.5472C31.43 11.442 31.3722 11.4447 30.9386 9.53632C28.749 1.58943 21.1759 0.308475 21.1631 0.301493C13.2296 -1.4045 5.78116 4.48828 5.45311 12.4314C5.4526 12.449 5.44016 12.7152 5.44016 12.9925C5.44029 13.5469 5.43991 15.4949 5.44054 15.5468C5.06133 16.0781 4.84132 16.7052 4.84132 17.3768C4.84132 18.9983 6.11961 20.3622 7.83907 20.7366C7.86166 20.8244 7.46709 26.8899 13.5856 30.161L13.6557 30.0188V30.0484L13.5992 30.1677L13.6557 30.1955L13.6556 32.0834L11.2451 33.2372C7.43548 34.1857 5.99749 34.3361 4.26991 35.9318C2.90084 37.1998 2.40725 38.5918 2.1927 40.3552C-0.0542436 60.6781 -0.0110794 59.5086 0.00275844 60.4495C-0.0260599 62.8801 1.67067 64.9949 4.47709 64.9949H12.1646C12.6905 64.9949 13.1166 64.5688 13.1166 64.0429C13.1166 63.5169 12.6906 63.0909 12.1646 63.0909H9.22235L10.1662 45.2354C10.1796 44.9833 10.0922 44.7362 9.9233 44.5485C9.75442 44.3608 9.5179 44.2478 9.26577 44.2345C8.74259 44.2033 8.29254 44.6098 8.26487 45.135L8.06631 48.8905L3.21036 48.3811L3.26266 47.9134C4.23855 39.3666 3.89082 38.6187 6.08762 36.9031C7.24036 36.0011 9.10542 35.7925 11.2563 35.1967L14.1829 38.9432C14.8833 39.8393 16.2125 39.9185 17.0141 39.1108L17.4705 38.6509V43.2577C17.4705 43.7836 17.8965 44.2098 18.4225 44.2098C18.9485 44.2098 19.3745 43.7837 19.3745 43.2577V38.6509C19.6311 38.8447 20.1492 39.7343 21.284 39.6662C21.5519 39.6504 21.8133 39.5777 22.0509 39.453C22.2885 39.3284 22.4968 39.1545 22.662 38.9431L25.5924 35.192C28.1393 35.897 29.7618 35.944 31.2549 37.2817C30.0957 39.1785 30.3734 40.5327 29.3416 48.8316L28.8631 48.8819L28.665 45.1351C28.6372 44.61 28.1885 44.2033 27.6641 44.2346C27.4119 44.248 27.1754 44.3609 27.0065 44.5486C26.8377 44.7363 26.7503 44.9834 26.7636 45.2355L27.6837 63.091H16.6071C16.0812 63.091 15.6551 63.517 15.6551 64.043C15.6551 64.569 16.0811 64.995 16.6071 64.995H40.3975C40.9233 64.995 41.3495 64.569 41.3495 64.043C41.3495 63.517 40.9234 63.091 40.3975 63.091H37.3186L38.2626 45.2355C38.2759 44.9834 38.1885 44.7363 38.0197 44.5486C37.8508 44.3609 37.6143 44.248 37.3621 44.2346C36.8401 44.2034 36.3889 44.6099 36.3612 45.1351L36.1628 48.8882L31.308 48.3789C32.2391 40.0899 32.129 39.131 33.219 37.7961C34.6393 36.1029 36.7073 35.8975 36.9761 35.789C37.1251 38.8518 38.0177 42.0588 41.0864 42.0588C43.1939 42.0588 45.4211 40.3929 46.5407 39.422C51.5382 43.7568 55.7597 42.9019 56.1055 35.7881C56.3726 35.8754 57.4357 36.0126 58.566 36.6898C59.9409 37.5156 60.5901 38.5949 60.8403 40.1269C60.9334 40.7215 60.8561 40.2001 61.7775 48.3792L56.9596 48.8847L56.7615 45.1355C56.7337 44.6103 56.2798 44.204 55.7606 44.235C55.5084 44.2483 55.2719 44.3613 55.103 44.549C54.9342 44.7367 54.8468 44.9838 54.8601 45.2359L55.804 63.0914H44.8399C44.3141 63.0914 43.8879 63.5174 43.8879 64.0434C43.8879 64.5694 44.314 64.9954 44.8399 64.9954H60.511C63.5253 64.995 65.309 62.5726 64.9557 59.6572ZM7.90737 50.7882L7.28936 63.0909C5.03708 62.9694 3.65774 63.4402 2.64846 62.4172C1.9831 61.7429 1.84675 60.8041 1.92623 59.8561L2.99873 50.2732L7.90737 50.7882ZM29.0061 18.7492V16.0043C30.4602 16.6042 30.4602 18.1492 29.0061 18.7492ZM7.83907 18.7493C6.38444 18.1496 6.38406 16.6039 7.83907 16.0041V18.7493ZM8.74056 13.8701L8.6616 13.9175C8.21278 13.9295 7.76843 14.01 7.34395 14.1563C7.44919 13.5099 6.71591 9.48947 10.1471 5.62807C11.4087 4.24796 12.8643 3.21266 14.6987 2.55605C14.7291 2.55491 21.5668 -0.198321 26.9124 5.87613C30.1079 9.68447 29.4057 13.7263 29.5007 14.1564C29.0763 14.0101 28.6321 13.9296 28.1834 13.9176C27.2634 13.3901 26.8239 12.4142 26.7861 11.3434C26.7781 11.3101 26.8291 10.3137 25.9535 9.58304C24.886 8.69208 23.9556 9.14022 22.0159 9.33256C16.9006 9.82806 13.3074 9.11128 12.7482 9.06824C11.4205 8.86169 10.1026 9.81968 10.059 11.3444C9.98953 13.2425 8.73409 13.8746 8.74056 13.8701ZM9.74298 19.8869V15.489C10.3903 14.9768 11.1094 14.5552 11.6461 13.1118C11.8512 12.5512 11.9473 11.9435 11.965 11.3441C11.9713 11.0971 12.2028 10.9101 12.4555 10.9497C14.9623 11.2776 16.6103 11.4429 18.8516 11.4165L18.9935 11.4141C26.6658 11.2977 24.0434 9.73208 25.1716 13.036C25.6069 14.3217 26.4853 15.031 26.4123 14.9617C26.7708 15.2953 27.0793 15.4728 27.1015 15.4888L27.1019 20.7459C27.1019 25.2546 23.6428 29.0758 19.0032 29.4036C16.4134 29.575 14.6148 28.5368 14.4533 28.4662L14.3495 28.6756L14.337 28.6791L14.4418 28.4605C14.3138 28.387 14.1259 28.3043 13.7181 28.0396C9.15582 25.0932 9.79453 20.1377 9.74298 19.8869ZM15.6737 37.7585L13.1105 34.4774L14.4 33.8603L17.0585 36.3634L15.6737 37.7585ZM18.4225 35.0323L15.5597 32.3371V30.9355C17.4219 31.4569 19.4031 31.4654 21.3082 30.9291V32.3155L18.4225 35.0323ZM21.1713 37.7585L19.7866 36.3632L22.4605 33.8456L23.7469 34.4614L21.1713 37.7585ZM36.0277 50.7882L35.4097 63.0909C32.3902 63.0877 32.3029 63.1166 31.8435 63.0104C30.6744 62.7405 30.0288 61.7138 30.0044 60.514C30.0001 59.592 29.969 60.6066 31.0965 50.2708L36.0277 50.7882ZM39.2827 25.476C38.4713 24.1258 37.8819 22.7763 37.8819 20.7459V15.3725C37.8819 15.2576 37.9636 15.16 38.0807 15.1352C39.2512 14.8876 40.9679 14.2481 42.5351 12.6087C43.9783 14.334 47.9995 18.2106 55.1795 18.5462C55.1959 18.5468 55.2114 18.5537 55.2228 18.5654C55.2343 18.5772 55.2407 18.5929 55.2408 18.6093C55.2384 20.5159 55.3462 21.6867 54.8724 23.2574C53.6957 27.1616 50.2585 28.5997 50.5302 28.4666L50.4471 28.5076C50.0274 28.7191 50.1817 28.6194 49.9964 28.7012C48.3078 29.4544 46.6017 29.419 46.5471 29.4247C46.501 29.4116 41.9934 29.6405 39.2827 25.476ZM50.5192 34.3969L50.5166 34.3963C50.5175 34.3964 50.5184 34.3966 50.5192 34.3969ZM40.4802 40.0429C39.5088 39.6388 38.9422 37.9722 38.8629 35.319L39.2939 35.2117C40.5379 36.992 42.3006 38.2339 44.2919 38.767C43.0268 39.6692 41.4687 40.454 40.4802 40.0429ZM41.3443 34.7011C42.6085 34.3813 42.6052 34.3991 42.7424 34.3369C43.298 34.0854 43.6571 33.4448 43.6571 32.7051V30.9236C45.4187 31.4324 47.3785 31.4882 49.4284 30.9341V32.705C49.4284 33.6078 49.9527 34.2549 50.506 34.3935L50.5246 34.3982L51.7382 34.7003C48.9417 37.9685 44.1388 37.9705 41.3443 34.7011ZM52.6026 40.0424C51.4957 40.5045 49.754 39.4632 48.7794 38.7597C50.8518 38.1979 52.58 36.8888 53.7547 35.2026L54.2189 35.3181C54.1399 37.9705 53.5737 39.6374 52.6026 40.0424ZM62.3397 62.4172C61.3303 63.4402 59.9585 62.9691 57.7106 63.0909L57.0602 50.788L61.9893 50.2709C63.1495 60.8327 63.0622 59.4425 63.0816 60.4732C63.0882 61.044 62.8967 61.8527 62.3397 62.4172Z" fill="#DB8C59"/>
</g>
<defs>
<clipPath id="clip0_1319_12049">
<rect width="65" height="65" fill="white"/>
</clipPath>
</defs>
</svg>
