<svg width="65" height="65" viewBox="0 0 65 65" fill="none" xmlns="http://www.w3.org/2000/svg">
<g clip-path="url(#clip0_1319_12042)">
<path d="M49.4332 37.7207L45.1065 36.636L42.2049 34.7023C42.0772 34.6205 41.933 34.5682 41.7826 34.5491C41.6323 34.5299 41.4795 34.5444 41.3355 34.5915C41.2847 34.6078 41.2471 34.6484 41.1994 34.6718L40.4539 31.6899C42.4374 29.748 44.0157 27.1865 44.5093 24.2574C46.2623 23.7719 47.3542 21.9224 47.67 20.0994C47.7593 19.5727 47.7562 19.0345 47.6609 18.5089C47.5268 17.7837 47.2302 17.3775 46.76 17.0271C46.8809 14.3661 46.887 4.90944 41.2766 0.235465C41.1671 0.144252 41.0397 0.0770815 40.9026 0.0383184C40.7655 -0.00044467 40.6218 -0.00993333 40.4808 0.0104689C40.3398 0.0308711 40.2047 0.0807078 40.0842 0.156741C39.9638 0.232774 39.8606 0.333303 39.7815 0.451797C38.0509 3.04574 34.2564 3.04574 29.4535 3.04574C22.2495 3.04574 18.2814 7.01385 18.2814 14.2178V17.0007C17.7777 17.3582 17.475 17.7786 17.3409 18.5099C17.2458 19.0348 17.2424 19.5723 17.3308 20.0984C17.6456 21.9245 18.7344 23.7658 20.4844 24.2544C20.9739 27.2678 22.5776 29.7896 24.549 31.6817L23.8045 34.6586C23.7639 34.6383 23.7334 34.6017 23.6887 34.5865C23.541 34.5356 23.3836 34.5196 23.2288 34.5397C23.0739 34.5598 22.9258 34.6154 22.796 34.7023L19.8943 36.636L15.5676 37.7207C13.15 38.3232 11.0036 39.7177 9.47065 41.6819C7.9377 43.6462 7.10644 46.067 7.10938 48.5586V63.9842C7.10938 64.2536 7.21639 64.5119 7.40686 64.7024C7.59733 64.8928 7.85566 64.9998 8.12502 64.9998C8.39439 64.9998 8.65272 64.8928 8.84319 64.7024C9.03366 64.5119 9.14066 64.2536 9.14066 63.9842V58.906H17.2658V63.9842C17.2658 64.2536 17.3728 64.5119 17.5633 64.7024C17.7537 64.8928 18.0121 64.9998 18.2814 64.9998C18.5508 64.9998 18.8091 64.8928 18.9996 64.7024C19.1901 64.5119 19.2971 64.2536 19.2971 63.9842V52.8121C19.2971 52.5428 19.1901 52.2845 18.9996 52.094C18.8091 51.9035 18.5508 51.7965 18.2814 51.7965C18.0121 51.7965 17.7537 51.9035 17.5633 52.094C17.3728 52.2845 17.2658 52.5428 17.2658 52.8121V56.8747H13.2032V48.5586C13.2024 47.4258 13.5806 46.3253 14.2776 45.4322C14.9746 44.5392 15.9503 43.9051 17.0495 43.6308L23.2103 42.086C25.3208 43.8308 28.3221 45.7047 32.2546 46.6868C32.416 46.7275 32.5849 46.7275 32.7462 46.6868C36.6788 45.7037 39.679 43.8308 41.7905 42.086L47.9524 43.6308C49.0514 43.9051 50.027 44.5393 50.7238 45.4323C51.4207 46.3254 51.7987 47.4259 51.7976 48.5586V56.8747H47.735V52.8121C47.735 52.5428 47.628 52.2845 47.4375 52.094C47.2471 51.9035 46.9887 51.7965 46.7194 51.7965C46.45 51.7965 46.1917 51.9035 46.0012 52.094C45.8107 52.2845 45.7037 52.5428 45.7037 52.8121V63.9842C45.7037 64.2536 45.8107 64.5119 46.0012 64.7024C46.1917 64.8928 46.45 64.9998 46.7194 64.9998C46.9887 64.9998 47.2471 64.8928 47.4375 64.7024C47.628 64.5119 47.735 64.2536 47.735 63.9842V58.906H55.8601V63.9842C55.8601 64.2536 55.9671 64.5119 56.1576 64.7024C56.3481 64.8928 56.6064 64.9998 56.8758 64.9998C57.1451 64.9998 57.4035 64.8928 57.594 64.7024C57.7844 64.5119 57.8914 64.2536 57.8914 63.9842V48.5586C57.8914 43.4236 54.4129 38.9679 49.4332 37.7207ZM39.3438 35.6245C39.4159 35.917 39.5388 36.1922 39.6922 36.4481C38.642 37.4709 36.5528 38.9933 32.5004 40.5544C28.4429 38.9913 26.3548 37.4668 25.3066 36.4512C25.461 36.1942 25.5829 35.918 25.656 35.6265L26.2816 33.1219C28.4541 34.685 30.7931 35.5473 32.5004 35.5473C34.3804 35.5473 36.6544 34.6698 38.7273 33.1554L39.3438 35.6245ZM45.591 18.6714C45.7291 19.0035 45.721 19.4311 45.6621 19.7835C45.5392 20.5158 45.2183 21.2927 44.6871 21.8321V18.8643C44.8821 18.7668 45.4285 18.5272 45.591 18.6714ZM20.3127 21.8351C19.7795 21.2958 19.4606 20.5209 19.3377 19.7855C19.2778 19.4301 19.2707 19.0065 19.4088 18.6704C19.5672 18.5312 20.0964 18.7557 20.3127 18.8633V21.8351ZM20.3127 16.7071V14.2178C20.3127 8.15238 23.3881 5.07703 29.4535 5.07703C34.1457 5.07703 38.2591 5.07703 40.7312 2.50136C44.6861 6.63299 44.812 14.1741 44.7338 16.6949C44.3093 16.7975 44.4758 16.766 44.2321 16.8605C43.8116 15.7961 43.1159 14.2564 42.3592 13.4997C41.0785 12.219 38.0255 11.9346 33.1504 11.6178C29.8922 11.4065 26.2004 11.1668 24.939 10.3259C24.786 10.2238 24.6082 10.1652 24.4246 10.1563C24.2409 10.1474 24.0583 10.1885 23.8961 10.2752C23.734 10.3619 23.5985 10.4911 23.504 10.6488C23.4095 10.8066 23.3596 10.987 23.3596 11.1709C23.3596 13.8014 21.887 16.0033 21.0968 16.9966C20.5707 16.7508 20.4935 16.7528 20.3127 16.7071ZM22.344 18.6724C23.0397 17.8832 24.7917 15.6549 25.2701 12.67C27.2018 13.2682 30.0466 13.453 33.0174 13.646C36.0023 13.84 40.0903 14.1051 40.9221 14.9369C41.5112 15.5259 42.2729 17.3429 42.6558 18.454V22.3439C42.6558 28.5272 36.4015 33.516 32.4994 33.516C29.0229 33.516 22.343 28.7983 22.343 22.3439L22.344 18.6724ZM16.5548 41.6614C15.0162 42.0448 13.6502 42.9322 12.6746 44.1823C11.6991 45.4323 11.17 46.973 11.1719 48.5586V56.8747H9.14066V48.5586C9.13842 46.5201 9.81862 44.5394 11.0729 42.9323C12.3271 41.3252 14.0832 40.1842 16.0612 39.6911L19.8993 38.7283C20.2223 39.1437 20.72 39.7408 21.4106 40.4447L16.5548 41.6614ZM32.5004 44.6545C26.7519 43.1402 23.1504 39.4555 21.7813 37.8193L23.0458 36.9773C25.005 39.5276 29.1173 41.4573 32.1429 42.5918C32.3734 42.6771 32.6274 42.6771 32.8569 42.5918C35.8825 41.4573 39.9948 39.5266 41.954 36.9773L43.2205 37.8213C41.8595 39.4555 38.2723 43.1341 32.5004 44.6545ZM53.8289 56.8747V48.5586C53.8289 45.2913 51.6148 42.4546 48.446 41.6614L43.5892 40.4447C44.2798 39.7408 44.7775 39.1437 45.1004 38.7283L48.9386 39.6911C50.9169 40.1838 52.6733 41.3247 53.9278 42.9319C55.1822 44.539 55.8625 46.5199 55.8601 48.5586V56.8747H53.8289Z" fill="#4881A5"/>
<path d="M40.6251 51.7975C38.9452 51.7975 37.5782 53.1645 37.5782 54.8444C37.5782 56.5243 38.9452 57.8913 40.6251 57.8913C42.305 57.8913 43.672 56.5243 43.672 54.8444C43.672 53.1645 42.305 51.7975 40.6251 51.7975ZM40.6251 55.86C40.3557 55.86 40.0974 55.753 39.9069 55.5625C39.7165 55.3721 39.6095 55.1137 39.6095 54.8444C39.6095 54.575 39.7165 54.3167 39.9069 54.1262C40.0974 53.9357 40.3557 53.8287 40.6251 53.8287C40.8945 53.8287 41.1528 53.9357 41.3433 54.1262C41.5337 54.3167 41.6408 54.575 41.6408 54.8444C41.6408 55.1137 41.5337 55.3721 41.3433 55.5625C41.1528 55.753 40.8945 55.86 40.6251 55.86ZM34.5313 9.14054C39.0895 9.14054 40.3854 6.81269 40.5185 6.54761C40.6356 6.31208 40.6555 6.03994 40.5738 5.78991C40.4921 5.53987 40.3153 5.33196 40.0817 5.21103C39.8456 5.08877 39.5714 5.06257 39.3164 5.13792C39.0614 5.21326 38.8454 5.3843 38.7137 5.61525C38.6781 5.67721 37.8209 7.10926 34.5313 7.10926C34.2619 7.10926 34.0036 7.21626 33.8131 7.40673C33.6226 7.5972 33.5156 7.85554 33.5156 8.1249C33.5156 8.39427 33.6226 8.6526 33.8131 8.84307C34.0036 9.03354 34.2619 9.14054 34.5313 9.14054Z" fill="#4881A5"/>
</g>
<defs>
<clipPath id="clip0_1319_12042">
<rect width="65" height="65" fill="white"/>
</clipPath>
</defs>
</svg>
